# xmcd
#
# Track frame offsets:
#	183
#	16130
#	31590
#	46083
#	60830
#	75480
#	94763
#	108198
#	126555
#	140353
#	152705
# Disc length: 2326 seconds
# Revision: 2
# Processed by: cddbd v1.5.1PL0 Copyright (c) Steve Scherf et al.
#
# Submitted via: libkcddb 0.10
#
DISCID=7609140b
DTITLE=Robin Lee - This Old Flame
DYEAR=1900
DGENRE=
TTITLE0=This Old Flame
TTITLE1=Serious Affection
TTITLE2=Reminiscing
TTITLE3=Maybe I Will, Maybe I Won't
TTITLE4=Before You Cheat On Me Once (You Better Think Twice)
TTITLE5=Ride With the Gang, Jesse James
TTITLE6=I'm Gettin' Good At Bein' Bad
TTITLE7=Shine A Light On A Lie
TTITLE8=Borrowed Time
TTITLE9=Take Me Back
TTITLE10=Take My Breath Away
EXTD=
EXTT0=
EXTT1=
EXTT2=
EXTT3=
EXTT4=
EXTT5=
EXTT6=
EXTT7=
EXTT8=
EXTT9=
EXTT10=
PLAYORDER=
